<?xml version="1.0" encoding="UTF-8" standalone="no"?>
<!-- Created with Inkscape (http://www.inkscape.org/) -->

<svg
   width="19.999992mm"
   height="20mm"
   viewBox="0 0 19.999992 20"
   version="1.1"
   id="svg5"
   xmlns="http://www.w3.org/2000/svg"
   xmlns:svg="http://www.w3.org/2000/svg">
  <defs
     id="defs2" />
  <g
     id="layer1"
     transform="translate(-127.28602,-196.07333)">
    <g
       id="g64542"
       transform="matrix(0.66666667,0,0,0.66666667,42.134585,99.23391)">
      <path
         style="fill:#c7c7cd;fill-opacity:0.898039;stroke:none;stroke-width:4.139;stroke-linecap:butt;stroke-linejoin:miter;stroke-dasharray:none;stroke-opacity:1"
         id="rect7249-1-8"
         width="30"
         height="29.999998"
         x="127.72716"
         y="145.25914"
         d="m 129.82716,145.25914 h 25.8 a 2.0999999,2.0999999 45 0 1 2.1,2.1 v 25.8 a 2.1,2.1 135 0 1 -2.1,2.1 l -25.8,0 a 2.0999999,2.0999999 45 0 1 -2.1,-2.1 l 0,-25.8 a 2.1,2.1 135 0 1 2.1,-2.1 z" />
      <path
         style="fill:#f8f8f8;fill-opacity:0.9;stroke:none;stroke-width:0.24676px;stroke-linecap:butt;stroke-linejoin:miter;stroke-opacity:1"
         d="m 134.84037,159.39146 4.69914,4.38566 10.93187,-13.85502 3.3837,2.91678 -14.08058,17.75275 -8.17176,-7.72776 z"
         id="path27018-5" />
    </g>
  </g>
</svg>
