<?xml version="1.0" encoding="UTF-8" standalone="no"?>
<!-- Created with Inkscape (http://www.inkscape.org/) -->

<svg
   width="19.999992mm"
   height="19.999996mm"
   viewBox="0 0 19.999992 19.999996"
   version="1.1"
   id="svg5"
   xmlns="http://www.w3.org/2000/svg"
   xmlns:svg="http://www.w3.org/2000/svg">
  <defs
     id="defs2" />
  <g
     id="layer1"
     transform="translate(-127.28602,-34.479609)">
    <g
       id="g55738"
       transform="matrix(0.4,0,0,0.4,96.974574,6.9829146)">
      <path
         style="fill:#3478f6;fill-opacity:1;stroke:none;stroke-width:4.139;stroke-linecap:butt;stroke-linejoin:miter;stroke-dasharray:none;stroke-opacity:1"
         id="rect7249-1"
         width="50"
         height="49.999996"
         x="75.778625"
         y="68.741737"
         d="m 79.278625,68.741737 h 43.000005 a 3.4999997,3.4999997 45 0 1 3.5,3.5 l 0,42.999993 a 3.5,3.5 135 0 1 -3.5,3.5 l -43.000005,0 a 3.4999997,3.4999997 45 0 1 -3.5,-3.5 V 72.241737 a 3.5,3.5 135 0 1 3.5,-3.5 z" />
      <path
         style="fill:#ffffff;stroke:none;stroke-width:0.411267px;stroke-linecap:butt;stroke-linejoin:miter;stroke-opacity:1"
         d="m 87.633997,92.295616 7.831907,7.309433 18.219776,-23.091709 5.6395,4.861307 L 95.857543,110.96256 82.237937,98.082967 Z"
         id="path27018" />
    </g>
  </g>
</svg>
